Coordinates
version=1
nRows=12
nColumns=34
inDegrees=no

Units are S.I. units (second, meters, Newtons, ...)
If the header above contains a line with 'inDegrees', this indicates whether rotational values are in degrees (yes) or radians (no).

endheader
time	pelvis_tilt	pelvis_list	pelvis_rotation	pelvis_tx	pelvis_ty	pelvis_tz	hip_flexion_r	hip_adduction_r	hip_rotation_r	knee_angle_r	ankle_angle_r	subtalar_angle_r	mtp_angle_r	hip_flexion_l	hip_adduction_l	hip_rotation_l	knee_angle_l	ankle_angle_l	subtalar_angle_l	mtp_angle_l	lumbar_extension	lumbar_bending	lumbar_rotation	arm_flex_r	arm_add_r	arm_rot_r	elbow_flex_r	pro_sup_r	arm_flex_l	arm_add_l	arm_rot_l	elbow_flex_l	pro_sup_l
0	0.125183	-0.015337	0.0830303	-0.131437	1.15684	-0.598364	-0.209234	-0.124527	-0.288433	0.0108036	0.0569507	0.244292	-0.0173464	-0.171755	-0.190838	-0.342632	0.0159341	0.0923838	0.437156	-0.0184274	-0.26747	0.0272427	-0.0675828	-0.0998315	-0.171612	-0.198312	0.972434	2.12027	-0.133407	-0.175776	-0.143928	0.956263	2.04023
0.01	0.124236	-0.0149183	0.0825308	-0.131702	1.15678	-0.59851	-0.207594	-0.125676	-0.289349	0.0123821	0.0575018	0.24517	-0.0173465	-0.171439	-0.19034	-0.342462	0.015357	0.0919049	0.436034	-0.0184321	-0.26635	0.0268496	-0.0670276	-0.098137	-0.17448	-0.191712	0.986273	2.1166	-0.132568	-0.179028	-0.13672	0.969264	2.03966
0.02	0.123168	-0.0146414	0.0820515	-0.132001	1.15673	-0.598652	-0.205819	-0.126648	-0.290093	0.0139264	0.0578723	0.245777	-0.0173466	-0.170793	-0.190017	-0.34226	0.0150248	0.0915051	0.434825	-0.0184368	-0.265199	0.0266678	-0.0669011	-0.0960722	-0.177459	-0.18439	1.00128	2.11123	-0.131865	-0.182461	-0.129578	0.983488	2.03858
0.03	0.121978	-0.014503	0.0815994	-0.132334	1.15668	-0.598791	-0.203906	-0.127447	-0.290681	0.015437	0.0580695	0.246123	-0.0173466	-0.169813	-0.189865	-0.34202	0.0149445	0.0911854	0.433536	-0.0184415	-0.264019	0.0266963	-0.0671928	-0.0936448	-0.180545	-0.176372	1.01747	2.10419	-0.131281	-0.186077	-0.122494	0.99893	2.03702
0.04	0.120669	-0.0144955	0.081193	-0.132704	1.15663	-0.598929	-0.20185	-0.128083	-0.291148	0.016918	0.0581108	0.246229	-0.0173467	-0.168488	-0.189883	-0.341734	0.0151367	0.0909484	0.432177	-0.0184462	-0.262815	0.0269313	-0.0678647	-0.0908765	-0.183723	-0.167731	1.03484	2.09561	-0.13076	-0.189883	-0.115429	1.01557	2.03509
0.05	0.119257	-0.0146034	0.0808613	-0.133113	1.15659	-0.59907	-0.199657	-0.128576	-0.291542	0.0183778	0.0580231	0.246118	-0.0173467	-0.166814	-0.190062	-0.341392	0.0156373	0.0907963	0.430774	-0.018451	-0.261611	0.0273593	-0.0688331	-0.0878076	-0.186967	-0.158596	1.05342	2.08571	-0.130188	-0.193894	-0.108284	1.03337	2.03299
0.06	0.117781	-0.0147939	0.0806372	-0.133565	1.15655	-0.599215	-0.197362	-0.128959	-0.291912	0.0198283	0.0578394	0.245804	-0.0173468	-0.164815	-0.190376	-0.340984	0.0164927	0.0907241	0.429362	-0.0184557	-0.260461	0.0279429	-0.0699581	-0.0844932	-0.190243	-0.149136	1.07324	2.07481	-0.129385	-0.198141	-0.100871	1.05227	2.03092
0.07	0.116314	-0.015013	0.0805471	-0.134065	1.15653	-0.599367	-0.195034	-0.129287	-0.29229	0.0212873	0.0575984	0.245282	-0.0173468	-0.162558	-0.190781	-0.340512	0.0177474	0.0907148	0.42798	-0.0184604	-0.259456	0.0286133	-0.0710373	-0.0809975	-0.193514	-0.139546	1.09434	2.06324	-0.128095	-0.202669	-0.0928933	1.07218	2.02903
0.08	0.114957	-0.015191	0.0806001	-0.134618	1.15653	-0.599525	-0.192767	-0.129629	-0.292682	0.0227855	0.0573435	0.244529	-0.0173469	-0.160152	-0.191213	-0.339995	0.0194299	0.0907397	0.426668	-0.0184651	-0.258723	0.0292737	-0.0718041	-0.0773856	-0.196747	-0.130037	1.11671	2.05141	-0.12599	-0.20753	-0.0839513	1.09296	2.02739
0.09	0.113826	-0.0152539	0.0807792	-0.135228	1.15656	-0.599686	-0.19066	-0.130056	-0.293059	0.0243759	0.0571222	0.243502	-0.017347	-0.157737	-0.191606	-0.339468	0.0215425	0.0907642	0.425459	-0.0184698	-0.258408	0.0298118	-0.0719381	-0.0737128	-0.19992	-0.120829	1.14033	2.0398	-0.122687	-0.212775	-0.073569	1.11445	2.02594
0.1	0.113031	-0.0151376	0.0810389	-0.135904	1.15664	-0.599842	-0.188783	-0.130639	-0.29336	0.0261393	0.056982	0.242148	-0.017347	-0.155455	-0.191899	-0.338998	0.0240665	0.0907579	0.424383	-0.0184745	-0.258654	0.0301157	-0.071094	-0.0700095	-0.203031	-0.112134	1.16513	2.02895	-0.117775	-0.218433	-0.0612596	1.1364	2.02459
0.11	0.112648	-0.0148017	0.0813082	-0.136652	1.15677	-0.599985	-0.187145	-0.131437	-0.293498	0.0281844	0.0569623	0.240411	-0.0173471	-0.153403	-0.192049	-0.338676	0.0269814	0.0907074	0.423465	-0.0184791	-0.259565	0.0300941	-0.0689509	-0.0662606	-0.206102	-0.104113	1.19094	2.01933	-0.110862	-0.224492	-0.0466139	1.15857	2.02316
